<?xml version="1.0" encoding="UTF-8"?><svg xmlns="http://www.w3.org/2000/svg" xmlns:xlink="http://www.w3.org/1999/xlink" fill-opacity="1" color-rendering="auto" color-interpolation="auto" text-rendering="auto" stroke="black" stroke-linecap="square" width="693" stroke-miterlimit="10" shape-rendering="auto" stroke-opacity="1" fill="black" stroke-dasharray="none" font-weight="normal" stroke-width="1" height="373" font-family="'Dialog'" font-style="normal" stroke-linejoin="miter" font-size="12px" stroke-dashoffset="0" image-rendering="auto">
  <!--Generated by ySVG 2.5-->
  <defs id="genericDefs"/>
  <g>
    <defs id="defs1">
      <linearGradient x1="-56.152" gradientUnits="userSpaceOnUse" x2="-56.152" y1="-41.84" y2="-24.84" id="linearGradient1" spreadMethod="pad">
        <stop stop-opacity="1" stop-color="white" offset="0%"/>
        <stop stop-opacity="1" stop-color="white" offset="100%"/>
      </linearGradient>
      <linearGradient x1="-22.352" gradientUnits="userSpaceOnUse" x2="-22.352" y1="78.16" y2="95.16" id="linearGradient2" spreadMethod="pad">
        <stop stop-opacity="1" stop-color="rgb(239,239,239)" offset="0%"/>
        <stop stop-opacity="1" stop-color="rgb(205,205,205)" offset="100%"/>
      </linearGradient>
      <linearGradient x1="174.848" gradientUnits="userSpaceOnUse" x2="174.848" y1="-41.84" y2="-24.84" id="linearGradient3" spreadMethod="pad">
        <stop stop-opacity="1" stop-color="white" offset="0%"/>
        <stop stop-opacity="1" stop-color="white" offset="100%"/>
      </linearGradient>
      <linearGradient x1="156.848" gradientUnits="userSpaceOnUse" x2="156.848" y1="18.16" y2="35.16" id="linearGradient4" spreadMethod="pad">
        <stop stop-opacity="1" stop-color="rgb(239,239,239)" offset="0%"/>
        <stop stop-opacity="1" stop-color="rgb(205,205,205)" offset="100%"/>
      </linearGradient>
      <linearGradient x1="175.848" gradientUnits="userSpaceOnUse" x2="175.848" y1="78.16" y2="95.16" id="linearGradient5" spreadMethod="pad">
        <stop stop-opacity="1" stop-color="rgb(239,239,239)" offset="0%"/>
        <stop stop-opacity="1" stop-color="rgb(205,205,205)" offset="100%"/>
      </linearGradient>
      <linearGradient x1="210.248" gradientUnits="userSpaceOnUse" x2="210.248" y1="138.16" y2="155.16" id="linearGradient6" spreadMethod="pad">
        <stop stop-opacity="1" stop-color="rgb(223,223,223)" offset="0%"/>
        <stop stop-opacity="1" stop-color="rgb(153,153,153)" offset="100%"/>
      </linearGradient>
      <linearGradient x1="483.488" gradientUnits="userSpaceOnUse" x2="483.488" y1="44.08" y2="61.08" id="linearGradient7" spreadMethod="pad">
        <stop stop-opacity="1" stop-color="white" offset="0%"/>
        <stop stop-opacity="1" stop-color="white" offset="100%"/>
      </linearGradient>
      <linearGradient x1="-56.152" gradientUnits="userSpaceOnUse" x2="-56.152" y1="198.16" y2="215.16" id="linearGradient8" spreadMethod="pad">
        <stop stop-opacity="1" stop-color="white" offset="0%"/>
        <stop stop-opacity="1" stop-color="white" offset="100%"/>
      </linearGradient>
      <linearGradient x1="401.888" gradientUnits="userSpaceOnUse" x2="401.888" y1="198.16" y2="215.16" id="linearGradient9" spreadMethod="pad">
        <stop stop-opacity="1" stop-color="rgb(223,223,223)" offset="0%"/>
        <stop stop-opacity="1" stop-color="rgb(153,153,153)" offset="100%"/>
      </linearGradient>
      <linearGradient x1="151.004" gradientUnits="userSpaceOnUse" x2="151.004" y1="198.16" y2="215.16" id="linearGradient10" spreadMethod="pad">
        <stop stop-opacity="1" stop-color="rgb(239,239,239)" offset="0%"/>
        <stop stop-opacity="1" stop-color="rgb(205,205,205)" offset="100%"/>
      </linearGradient>
      <clipPath clipPathUnits="userSpaceOnUse" id="clipPath1">
        <path d="M0 0 L693 0 L693 373 L0 373 L0 0 Z"/>
      </clipPath>
      <clipPath clipPathUnits="userSpaceOnUse" id="clipPath2">
        <path d="M-72 -128 L621 -128 L621 245 L-72 245 L-72 -128 Z"/>
      </clipPath>
    </defs>
    <g fill="white" text-rendering="geometricPrecision" shape-rendering="geometricPrecision" transform="translate(72,128)" stroke="white">
      <rect x="-72" width="693" height="373" y="-128" clip-path="url(#clipPath2)" stroke="none"/>
    </g>
    <g fill="white" text-rendering="geometricPrecision" shape-rendering="geometricPrecision" transform="matrix(1,0,0,1,72,128)" stroke="white">
      <path d="M-56.152 -26.84 L53.448 -26.84 L53.448 -13.84 Q53.448 -10.84 50.448 -10.84 L-53.152 -10.84 Q-56.152 -10.84 -56.152 -13.84 Z" stroke="none" clip-path="url(#clipPath2)"/>
      <path fill="url(#linearGradient1)" d="M-56.152 -37.84 Q-56.152 -40.84 -53.152 -40.84 L50.448 -40.84 Q53.448 -40.84 53.448 -37.84 L53.448 -25.84 L-56.152 -25.84 Z" clip-path="url(#clipPath2)" stroke="none"/>
      <path fill="none" d="M-54.152 -37.84 Q-54.152 -38.84 -53.152 -38.84 L50.448 -38.84 Q51.448 -38.84 51.448 -37.84 L51.448 -13.84 Q51.448 -12.84 50.448 -12.84 L-53.152 -12.84 Q-54.152 -12.84 -54.152 -13.84 Z" stroke-width="2" clip-path="url(#clipPath2)" stroke="rgb(217,217,217)"/>
      <path fill="none" d="M-54.152 -37.84 Q-54.152 -38.84 -53.152 -38.84 L50.448 -38.84 Q51.448 -38.84 51.448 -37.84 L51.448 -13.84 Q51.448 -12.84 50.448 -12.84 L-53.152 -12.84 Q-54.152 -12.84 -54.152 -13.84 Z" clip-path="url(#clipPath2)" stroke="black"/>
    </g>
    <g stroke-linecap="butt" transform="matrix(1,0,0,1,72,128)" text-rendering="geometricPrecision" font-family="sans-serif" shape-rendering="geometricPrecision" font-weight="bold" stroke-miterlimit="1.45">
      <text x="-44.5034" xml:space="preserve" y="-21.6857" clip-path="url(#clipPath2)" stroke="none">Environment</text>
    </g>
    <g fill="silver" text-rendering="geometricPrecision" shape-rendering="geometricPrecision" transform="matrix(1,0,0,1,72,128)" stroke="silver">
      <path d="M-22.352 93.16 L19.648 93.16 L19.648 106.16 Q19.648 109.16 16.648 109.16 L-19.352 109.16 Q-22.352 109.16 -22.352 106.16 Z" stroke="none" clip-path="url(#clipPath2)"/>
      <path fill="url(#linearGradient2)" d="M-22.352 82.16 Q-22.352 79.16 -19.352 79.16 L16.648 79.16 Q19.648 79.16 19.648 82.16 L19.648 94.16 L-22.352 94.16 Z" clip-path="url(#clipPath2)" stroke="none"/>
      <path fill="none" d="M-20.352 82.16 Q-20.352 81.16 -19.352 81.16 L16.648 81.16 Q17.648 81.16 17.648 82.16 L17.648 106.16 Q17.648 107.16 16.648 107.16 L-19.352 107.16 Q-20.352 107.16 -20.352 106.16 Z" stroke-width="2" clip-path="url(#clipPath2)" stroke="rgb(217,217,217)"/>
      <path fill="none" d="M-20.352 82.16 Q-20.352 81.16 -19.352 81.16 L16.648 81.16 Q17.648 81.16 17.648 82.16 L17.648 106.16 Q17.648 107.16 16.648 107.16 L-19.352 107.16 Q-20.352 107.16 -20.352 106.16 Z" clip-path="url(#clipPath2)" stroke="black"/>
    </g>
    <g stroke-linecap="butt" transform="matrix(1,0,0,1,72,128)" text-rendering="geometricPrecision" font-family="sans-serif" shape-rendering="geometricPrecision" font-weight="bold" stroke-miterlimit="1.45">
      <text x="-14.5854" xml:space="preserve" y="98.3143" clip-path="url(#clipPath2)" stroke="none">App</text>
    </g>
    <g fill="white" text-rendering="geometricPrecision" shape-rendering="geometricPrecision" transform="matrix(1,0,0,1,72,128)" stroke="white">
      <path d="M174.848 -26.84 L342.448 -26.84 L342.448 -13.84 Q342.448 -10.84 339.448 -10.84 L177.848 -10.84 Q174.848 -10.84 174.848 -13.84 Z" stroke="none" clip-path="url(#clipPath2)"/>
      <path fill="url(#linearGradient3)" d="M174.848 -37.84 Q174.848 -40.84 177.848 -40.84 L339.448 -40.84 Q342.448 -40.84 342.448 -37.84 L342.448 -25.84 L174.848 -25.84 Z" clip-path="url(#clipPath2)" stroke="none"/>
      <path fill="none" d="M176.848 -37.84 Q176.848 -38.84 177.848 -38.84 L339.448 -38.84 Q340.448 -38.84 340.448 -37.84 L340.448 -13.84 Q340.448 -12.84 339.448 -12.84 L177.848 -12.84 Q176.848 -12.84 176.848 -13.84 Z" stroke-width="2" clip-path="url(#clipPath2)" stroke="rgb(217,217,217)"/>
      <path fill="none" d="M176.848 -37.84 Q176.848 -38.84 177.848 -38.84 L339.448 -38.84 Q340.448 -38.84 340.448 -37.84 L340.448 -13.84 Q340.448 -12.84 339.448 -12.84 L177.848 -12.84 Q176.848 -12.84 176.848 -13.84 Z" clip-path="url(#clipPath2)" stroke="black"/>
    </g>
    <g stroke-linecap="butt" transform="matrix(1,0,0,1,72,128)" text-rendering="geometricPrecision" font-family="sans-serif" shape-rendering="geometricPrecision" font-weight="bold" stroke-miterlimit="1.45">
      <text x="189.9322" xml:space="preserve" y="-21.6857" clip-path="url(#clipPath2)" stroke="none">EnvironmentFactory</text>
    </g>
    <g fill="silver" text-rendering="geometricPrecision" shape-rendering="geometricPrecision" transform="matrix(1,0,0,1,72,128)" stroke="silver">
      <path d="M156.848 33.16 L360.448 33.16 L360.448 46.16 Q360.448 49.16 357.448 49.16 L159.848 49.16 Q156.848 49.16 156.848 46.16 Z" stroke="none" clip-path="url(#clipPath2)"/>
      <path fill="url(#linearGradient4)" d="M156.848 22.16 Q156.848 19.16 159.848 19.16 L357.448 19.16 Q360.448 19.16 360.448 22.16 L360.448 34.16 L156.848 34.16 Z" clip-path="url(#clipPath2)" stroke="none"/>
      <path fill="none" d="M158.848 22.16 Q158.848 21.16 159.848 21.16 L357.448 21.16 Q358.448 21.16 358.448 22.16 L358.448 46.16 Q358.448 47.16 357.448 47.16 L159.848 47.16 Q158.848 47.16 158.848 46.16 Z" stroke-width="2" clip-path="url(#clipPath2)" stroke="rgb(217,217,217)"/>
      <path fill="none" d="M158.848 22.16 Q158.848 21.16 159.848 21.16 L357.448 21.16 Q358.448 21.16 358.448 22.16 L358.448 46.16 Q358.448 47.16 357.448 47.16 L159.848 47.16 Q158.848 47.16 158.848 46.16 Z" clip-path="url(#clipPath2)" stroke="black"/>
    </g>
    <g stroke-linecap="butt" transform="matrix(1,0,0,1,72,128)" text-rendering="geometricPrecision" font-family="sans-serif" shape-rendering="geometricPrecision" font-weight="bold" stroke-miterlimit="1.45">
      <text x="178.7701" xml:space="preserve" y="38.3143" clip-path="url(#clipPath2)" stroke="none">EnvironmentPreparator</text>
    </g>
    <g fill="silver" text-rendering="geometricPrecision" shape-rendering="geometricPrecision" transform="matrix(1,0,0,1,72,128)" stroke="silver">
      <path d="M175.848 93.16 L341.448 93.16 L341.448 106.16 Q341.448 109.16 338.448 109.16 L178.848 109.16 Q175.848 109.16 175.848 106.16 Z" stroke="none" clip-path="url(#clipPath2)"/>
      <path fill="url(#linearGradient5)" d="M175.848 82.16 Q175.848 79.16 178.848 79.16 L338.448 79.16 Q341.448 79.16 341.448 82.16 L341.448 94.16 L175.848 94.16 Z" clip-path="url(#clipPath2)" stroke="none"/>
      <path fill="none" d="M177.848 82.16 Q177.848 81.16 178.848 81.16 L338.448 81.16 Q339.448 81.16 339.448 82.16 L339.448 106.16 Q339.448 107.16 338.448 107.16 L178.848 107.16 Q177.848 107.16 177.848 106.16 Z" stroke-width="2" clip-path="url(#clipPath2)" stroke="rgb(217,217,217)"/>
      <path fill="none" d="M177.848 82.16 Q177.848 81.16 178.848 81.16 L338.448 81.16 Q339.448 81.16 339.448 82.16 L339.448 106.16 Q339.448 107.16 338.448 107.16 L178.848 107.16 Q177.848 107.16 177.848 106.16 Z" clip-path="url(#clipPath2)" stroke="black"/>
    </g>
    <g stroke-linecap="butt" transform="matrix(1,0,0,1,72,128)" text-rendering="geometricPrecision" font-family="sans-serif" shape-rendering="geometricPrecision" font-weight="bold" stroke-miterlimit="1.45">
      <text x="194.813" xml:space="preserve" y="98.3143" clip-path="url(#clipPath2)" stroke="none">ApplicationFactory</text>
    </g>
    <g fill="gray" text-rendering="geometricPrecision" shape-rendering="geometricPrecision" transform="matrix(1,0,0,1,72,128)" stroke="gray">
      <path d="M210.248 153.16 L307.048 153.16 L307.048 166.16 Q307.048 169.16 304.048 169.16 L213.248 169.16 Q210.248 169.16 210.248 166.16 Z" stroke="none" clip-path="url(#clipPath2)"/>
      <path fill="url(#linearGradient6)" d="M210.248 142.16 Q210.248 139.16 213.248 139.16 L304.048 139.16 Q307.048 139.16 307.048 142.16 L307.048 154.16 L210.248 154.16 Z" clip-path="url(#clipPath2)" stroke="none"/>
      <path fill="none" d="M212.248 142.16 Q212.248 141.16 213.248 141.16 L304.048 141.16 Q305.048 141.16 305.048 142.16 L305.048 166.16 Q305.048 167.16 304.048 167.16 L213.248 167.16 Q212.248 167.16 212.248 166.16 Z" stroke-width="2" clip-path="url(#clipPath2)" stroke="rgb(217,217,217)"/>
      <path fill="none" d="M212.248 142.16 Q212.248 141.16 213.248 141.16 L304.048 141.16 Q305.048 141.16 305.048 142.16 L305.048 166.16 Q305.048 167.16 304.048 167.16 L213.248 167.16 Q212.248 167.16 212.248 166.16 Z" clip-path="url(#clipPath2)" stroke="black"/>
    </g>
    <g stroke-linecap="butt" transform="matrix(1,0,0,1,72,128)" text-rendering="geometricPrecision" font-family="sans-serif" shape-rendering="geometricPrecision" font-weight="bold" stroke-miterlimit="1.45">
      <text x="223.9898" xml:space="preserve" y="158.3143" clip-path="url(#clipPath2)" stroke="none">TestScript</text>
    </g>
    <g fill="white" text-rendering="geometricPrecision" shape-rendering="geometricPrecision" transform="matrix(1,0,0,1,72,128)" stroke="white">
      <path d="M483.488 59.08 L605.488 59.08 L605.488 72.08 Q605.488 75.08 602.488 75.08 L486.488 75.08 Q483.488 75.08 483.488 72.08 Z" stroke="none" clip-path="url(#clipPath2)"/>
      <path fill="url(#linearGradient7)" d="M483.488 48.08 Q483.488 45.08 486.488 45.08 L602.488 45.08 Q605.488 45.08 605.488 48.08 L605.488 60.08 L483.488 60.08 Z" clip-path="url(#clipPath2)" stroke="none"/>
      <path fill="none" d="M485.488 48.08 Q485.488 47.08 486.488 47.08 L602.488 47.08 Q603.488 47.08 603.488 48.08 L603.488 72.08 Q603.488 73.08 602.488 73.08 L486.488 73.08 Q485.488 73.08 485.488 72.08 Z" stroke-width="2" clip-path="url(#clipPath2)" stroke="rgb(217,217,217)"/>
      <path fill="none" d="M485.488 48.08 Q485.488 47.08 486.488 47.08 L602.488 47.08 Q603.488 47.08 603.488 48.08 L603.488 72.08 Q603.488 73.08 602.488 73.08 L486.488 73.08 Q485.488 73.08 485.488 72.08 Z" clip-path="url(#clipPath2)" stroke="black"/>
    </g>
    <g stroke-linecap="butt" transform="matrix(1,0,0,1,72,128)" text-rendering="geometricPrecision" font-family="sans-serif" shape-rendering="geometricPrecision" font-weight="bold" stroke-miterlimit="1.45">
      <text x="505.4236" xml:space="preserve" y="64.2343" clip-path="url(#clipPath2)" stroke="none">TestRunner</text>
    </g>
    <g fill="white" text-rendering="geometricPrecision" shape-rendering="geometricPrecision" transform="matrix(1,0,0,1,72,128)" stroke="white">
      <path d="M170.648 -98.84 L331.648 -98.84 L331.648 -83.84 L346.648 -83.84 L346.648 -70.84 L170.648 -70.84 Z" stroke="none" clip-path="url(#clipPath2)"/>
    </g>
    <g fill="white" text-rendering="geometricPrecision" shape-rendering="geometricPrecision" transform="matrix(1,0,0,1,72,128)" stroke="white">
      <path d="M331.648 -98.84 L331.648 -83.84 L346.648 -83.84 Z" fill-rule="evenodd" clip-path="url(#clipPath2)" stroke="none"/>
    </g>
    <g text-rendering="geometricPrecision" stroke-miterlimit="1.45" shape-rendering="geometricPrecision" transform="matrix(1,0,0,1,72,128)" stroke-linecap="butt">
      <path fill="none" d="M170.648 -98.84 L331.648 -98.84 L331.648 -83.84 L346.648 -83.84 L346.648 -70.84 L170.648 -70.84 Z" clip-path="url(#clipPath2)"/>
      <path fill="none" d="M331.648 -98.84 L331.648 -83.84 L346.648 -83.84 Z" clip-path="url(#clipPath2)" fill-rule="evenodd"/>
      <text x="206.2681" xml:space="preserve" y="-80.6857" clip-path="url(#clipPath2)" font-family="sans-serif" stroke="none">Flow of a test run</text>
    </g>
    <g fill="rgb(255,204,0)" text-rendering="geometricPrecision" shape-rendering="geometricPrecision" transform="matrix(1,0,0,1,72,128)" stroke="rgb(255,204,0)">
      <circle r="0.5" clip-path="url(#clipPath2)" cx="481.508" cy="-92.84" stroke="none"/>
    </g>
    <g text-rendering="geometricPrecision" stroke-miterlimit="1.45" shape-rendering="geometricPrecision" transform="matrix(1,0,0,1,72,128)" stroke-linecap="butt">
      <circle fill="none" r="0.5" clip-path="url(#clipPath2)" cx="481.508" cy="-92.84"/>
    </g>
    <g fill="rgb(255,204,0)" text-rendering="geometricPrecision" shape-rendering="geometricPrecision" transform="matrix(1,0,0,1,72,128)" stroke="rgb(255,204,0)">
      <circle r="0.5" clip-path="url(#clipPath2)" cx="601.26" cy="-92.84" stroke="none"/>
    </g>
    <g text-rendering="geometricPrecision" stroke-miterlimit="1.45" shape-rendering="geometricPrecision" transform="matrix(1,0,0,1,72,128)" stroke-linecap="butt">
      <circle fill="none" r="0.5" clip-path="url(#clipPath2)" cx="601.26" cy="-92.84"/>
    </g>
    <g fill="rgb(255,204,0)" text-rendering="geometricPrecision" shape-rendering="geometricPrecision" transform="matrix(1,0,0,1,72,128)" stroke="rgb(255,204,0)">
      <circle r="0.5" clip-path="url(#clipPath2)" cx="483.988" cy="-53.32" stroke="none"/>
    </g>
    <g text-rendering="geometricPrecision" stroke-miterlimit="1.45" shape-rendering="geometricPrecision" transform="matrix(1,0,0,1,72,128)" stroke-linecap="butt">
      <circle fill="none" r="0.5" clip-path="url(#clipPath2)" cx="483.988" cy="-53.32"/>
    </g>
    <g fill="rgb(255,204,0)" text-rendering="geometricPrecision" shape-rendering="geometricPrecision" transform="matrix(1,0,0,1,72,128)" stroke="rgb(255,204,0)">
      <circle r="0.5" clip-path="url(#clipPath2)" cx="602.26" cy="-53.32" stroke="none"/>
    </g>
    <g text-rendering="geometricPrecision" stroke-miterlimit="1.45" shape-rendering="geometricPrecision" transform="matrix(1,0,0,1,72,128)" stroke-linecap="butt">
      <circle fill="none" r="0.5" clip-path="url(#clipPath2)" cx="602.26" cy="-53.32"/>
    </g>
    <g fill="white" text-rendering="geometricPrecision" shape-rendering="geometricPrecision" transform="matrix(1,0,0,1,72,128)" stroke="white">
      <path d="M103.3333 -10.84 L188.3333 -10.84 L188.3333 4.16 L203.3333 4.16 L203.3333 17.16 L103.3333 17.16 Z" stroke="none" clip-path="url(#clipPath2)"/>
      <path d="M188.3333 -10.84 L188.3333 4.16 L203.3333 4.16 Z" clip-path="url(#clipPath2)" fill-rule="evenodd" stroke="none"/>
      <path fill="none" stroke-miterlimit="1.45" d="M103.3333 -10.84 L188.3333 -10.84 L188.3333 4.16 L203.3333 4.16 L203.3333 17.16 L103.3333 17.16 Z" clip-path="url(#clipPath2)" stroke-linecap="butt"/>
      <path fill="none" stroke-miterlimit="1.45" d="M188.3333 -10.84 L188.3333 4.16 L203.3333 4.16 Z" fill-rule="evenodd" clip-path="url(#clipPath2)" stroke-linecap="butt"/>
    </g>
    <g text-rendering="geometricPrecision" stroke-miterlimit="1.45" shape-rendering="geometricPrecision" font-family="sans-serif" transform="matrix(1,0,0,1,72,128)" stroke-linecap="butt">
      <text x="57.1898" xml:space="preserve" y="7.3143" clip-path="url(#clipPath2)" stroke="none">Instantiate Environment objects</text>
    </g>
    <g fill="white" text-rendering="geometricPrecision" shape-rendering="geometricPrecision" transform="matrix(1,0,0,1,72,128)" stroke="white">
      <path d="M75.848 51.16 L160.848 51.16 L160.848 66.16 L175.848 66.16 L175.848 79.16 L75.848 79.16 Z" stroke="none" clip-path="url(#clipPath2)"/>
      <path d="M160.848 51.16 L160.848 66.16 L175.848 66.16 Z" clip-path="url(#clipPath2)" fill-rule="evenodd" stroke="none"/>
      <path fill="none" stroke-miterlimit="1.45" d="M75.848 51.16 L160.848 51.16 L160.848 66.16 L175.848 66.16 L175.848 79.16 L75.848 79.16 Z" clip-path="url(#clipPath2)" stroke-linecap="butt"/>
      <path fill="none" stroke-miterlimit="1.45" d="M160.848 51.16 L160.848 66.16 L175.848 66.16 Z" fill-rule="evenodd" clip-path="url(#clipPath2)" stroke-linecap="butt"/>
    </g>
    <g text-rendering="geometricPrecision" stroke-miterlimit="1.45" shape-rendering="geometricPrecision" font-family="sans-serif" transform="matrix(1,0,0,1,72,128)" stroke-linecap="butt">
      <text x="2.5902" xml:space="preserve" y="69.3143" clip-path="url(#clipPath2)" stroke="none">Prepare remote Environments filesystem</text>
    </g>
    <g fill="white" text-rendering="geometricPrecision" shape-rendering="geometricPrecision" transform="matrix(1,0,0,1,72,128)" stroke="white">
      <path d="M88.848 114.16 L173.848 114.16 L173.848 129.16 L188.848 129.16 L188.848 142.16 L88.848 142.16 Z" stroke="none" clip-path="url(#clipPath2)"/>
      <path d="M173.848 114.16 L173.848 129.16 L188.848 129.16 Z" clip-path="url(#clipPath2)" fill-rule="evenodd" stroke="none"/>
      <path fill="none" stroke-miterlimit="1.45" d="M88.848 114.16 L173.848 114.16 L173.848 129.16 L188.848 129.16 L188.848 142.16 L88.848 142.16 Z" clip-path="url(#clipPath2)" stroke-linecap="butt"/>
      <path fill="none" stroke-miterlimit="1.45" d="M173.848 114.16 L173.848 129.16 L188.848 129.16 Z" fill-rule="evenodd" clip-path="url(#clipPath2)" stroke-linecap="butt"/>
    </g>
    <g text-rendering="geometricPrecision" stroke-miterlimit="1.45" shape-rendering="geometricPrecision" font-family="sans-serif" transform="matrix(1,0,0,1,72,128)" stroke-linecap="butt">
      <text x="29.1341" xml:space="preserve" y="125.3299" clip-path="url(#clipPath2)" stroke="none">Instantiate App objects coupled with</text>
      <text x="95.3714" xml:space="preserve" y="139.2987" clip-path="url(#clipPath2)" stroke="none"> Environments</text>
    </g>
    <g fill="white" text-rendering="geometricPrecision" shape-rendering="geometricPrecision" transform="matrix(1,0,0,1,72,128)" stroke="white">
      <path d="M-56.152 213.16 L124.736 213.16 L124.736 226.16 Q124.736 229.16 121.736 229.16 L-53.152 229.16 Q-56.152 229.16 -56.152 226.16 Z" stroke="none" clip-path="url(#clipPath2)"/>
      <path fill="url(#linearGradient8)" d="M-56.152 202.16 Q-56.152 199.16 -53.152 199.16 L121.736 199.16 Q124.736 199.16 124.736 202.16 L124.736 214.16 L-56.152 214.16 Z" clip-path="url(#clipPath2)" stroke="none"/>
      <path fill="none" d="M-54.152 202.16 Q-54.152 201.16 -53.152 201.16 L121.736 201.16 Q122.736 201.16 122.736 202.16 L122.736 226.16 Q122.736 227.16 121.736 227.16 L-53.152 227.16 Q-54.152 227.16 -54.152 226.16 Z" stroke-width="2" clip-path="url(#clipPath2)" stroke="rgb(217,217,217)"/>
      <path fill="none" d="M-54.152 202.16 Q-54.152 201.16 -53.152 201.16 L121.736 201.16 Q122.736 201.16 122.736 202.16 L122.736 226.16 Q122.736 227.16 121.736 227.16 L-53.152 227.16 Q-54.152 227.16 -54.152 226.16 Z" clip-path="url(#clipPath2)" stroke="black"/>
    </g>
    <g stroke-linecap="butt" transform="matrix(1,0,0,1,72,128)" text-rendering="geometricPrecision" font-family="sans-serif" shape-rendering="geometricPrecision" font-weight="bold" stroke-miterlimit="1.45">
      <text x="-37.0225" xml:space="preserve" y="218.3143" clip-path="url(#clipPath2)" stroke="none">Provided by dfuntest</text>
    </g>
    <g fill="gray" text-rendering="geometricPrecision" shape-rendering="geometricPrecision" transform="matrix(1,0,0,1,72,128)" stroke="gray">
      <path d="M401.888 213.16 L605.488 213.16 L605.488 226.16 Q605.488 229.16 602.488 229.16 L404.888 229.16 Q401.888 229.16 401.888 226.16 Z" stroke="none" clip-path="url(#clipPath2)"/>
      <path fill="url(#linearGradient9)" d="M401.888 202.16 Q401.888 199.16 404.888 199.16 L602.488 199.16 Q605.488 199.16 605.488 202.16 L605.488 214.16 L401.888 214.16 Z" clip-path="url(#clipPath2)" stroke="none"/>
      <path fill="none" d="M403.888 202.16 Q403.888 201.16 404.888 201.16 L602.488 201.16 Q603.488 201.16 603.488 202.16 L603.488 226.16 Q603.488 227.16 602.488 227.16 L404.888 227.16 Q403.888 227.16 403.888 226.16 Z" stroke-width="2" clip-path="url(#clipPath2)" stroke="rgb(217,217,217)"/>
      <path fill="none" d="M403.888 202.16 Q403.888 201.16 404.888 201.16 L602.488 201.16 Q603.488 201.16 603.488 202.16 L603.488 226.16 Q603.488 227.16 602.488 227.16 L404.888 227.16 Q403.888 227.16 403.888 226.16 Z" clip-path="url(#clipPath2)" stroke="black"/>
    </g>
    <g stroke-linecap="butt" transform="matrix(1,0,0,1,72,128)" text-rendering="geometricPrecision" font-family="sans-serif" shape-rendering="geometricPrecision" font-weight="bold" stroke-miterlimit="1.45">
      <text x="429.7222" xml:space="preserve" y="218.3143" clip-path="url(#clipPath2)" stroke="none">Written for every test</text>
    </g>
    <g fill="silver" text-rendering="geometricPrecision" shape-rendering="geometricPrecision" transform="matrix(1,0,0,1,72,128)" stroke="silver">
      <path d="M151.004 213.16 L366.292 213.16 L366.292 226.16 Q366.292 229.16 363.292 229.16 L154.004 229.16 Q151.004 229.16 151.004 226.16 Z" stroke="none" clip-path="url(#clipPath2)"/>
      <path fill="url(#linearGradient10)" d="M151.004 202.16 Q151.004 199.16 154.004 199.16 L363.292 199.16 Q366.292 199.16 366.292 202.16 L366.292 214.16 L151.004 214.16 Z" clip-path="url(#clipPath2)" stroke="none"/>
      <path fill="none" d="M153.004 202.16 Q153.004 201.16 154.004 201.16 L363.292 201.16 Q364.292 201.16 364.292 202.16 L364.292 226.16 Q364.292 227.16 363.292 227.16 L154.004 227.16 Q153.004 227.16 153.004 226.16 Z" stroke-width="2" clip-path="url(#clipPath2)" stroke="rgb(217,217,217)"/>
      <path fill="none" d="M153.004 202.16 Q153.004 201.16 154.004 201.16 L363.292 201.16 Q364.292 201.16 364.292 202.16 L364.292 226.16 Q364.292 227.16 363.292 227.16 L154.004 227.16 Q153.004 227.16 153.004 226.16 Z" clip-path="url(#clipPath2)" stroke="black"/>
    </g>
    <g stroke-linecap="butt" transform="matrix(1,0,0,1,72,128)" text-rendering="geometricPrecision" font-family="sans-serif" shape-rendering="geometricPrecision" font-weight="bold" stroke-miterlimit="1.45">
      <text x="163.2837" xml:space="preserve" y="218.3143" clip-path="url(#clipPath2)" stroke="none">Written once for application</text>
    </g>
    <g text-rendering="geometricPrecision" stroke-miterlimit="1.45" shape-rendering="geometricPrecision" transform="matrix(1,0,0,1,72,128)" stroke-linecap="butt">
      <path fill="none" d="M-1.352 79.1307 L-1.352 -2.8478" clip-path="url(#clipPath2)"/>
      <path d="M-1.352 -10.8478 L-6.352 1.1522 L-1.352 -1.8478 L3.648 1.1522 Z" clip-path="url(#clipPath2)" stroke="none"/>
      <path fill="none" d="M174.8272 -25.84 L61.4889 -25.84" clip-path="url(#clipPath2)"/>
      <path d="M53.4889 -25.84 L65.4889 -20.84 L62.4889 -25.84 L65.4889 -30.84 Z" clip-path="url(#clipPath2)" stroke="none"/>
    </g>
    <g text-rendering="geometricPrecision" stroke-miterlimit="1.45" shape-rendering="geometricPrecision" transform="matrix(1,0,0,1,72,128)" stroke-linecap="butt">
      <path fill="none" d="M257.148 -10.8693 L257.148 7.0149 L252.398 4.1649 L258.648 19.1649 L264.898 4.1649 L260.148 7.0149 L260.148 -10.8693 Z" clip-path="url(#clipPath2)"/>
    </g>
    <g text-rendering="geometricPrecision" stroke-miterlimit="1.45" shape-rendering="geometricPrecision" transform="matrix(1,0,0,1,72,128)" stroke-linecap="butt">
      <path fill="none" d="M257.148 49.1893 L257.148 67.0344 L252.398 64.1844 L258.648 79.1844 L264.898 64.1844 L260.148 67.0344 L260.148 49.1893 Z" clip-path="url(#clipPath2)"/>
    </g>
    <g text-rendering="geometricPrecision" stroke-miterlimit="1.45" shape-rendering="geometricPrecision" transform="matrix(1,0,0,1,72,128)" stroke-linecap="butt">
      <path fill="none" d="M175.8428 94.16 L27.6293 94.16" clip-path="url(#clipPath2)"/>
      <path d="M19.6293 94.16 L31.6293 99.16 L28.6293 94.16 L31.6293 89.16 Z" clip-path="url(#clipPath2)" stroke="none"/>
    </g>
    <g text-rendering="geometricPrecision" stroke-miterlimit="1.45" shape-rendering="geometricPrecision" transform="matrix(1,0,0,1,72,128)" stroke-linecap="butt">
      <path fill="none" d="M257.148 109.1307 L257.148 127.0149 L252.398 124.1649 L258.648 139.1649 L264.898 124.1649 L260.148 127.0149 L260.148 109.1307 Z" clip-path="url(#clipPath2)"/>
    </g>
    <g text-rendering="geometricPrecision" stroke-miterlimit="1.45" shape-rendering="geometricPrecision" transform="matrix(1,0,0,1,72,128)" stroke-linecap="butt">
      <path fill="none" d="M210.2471 154.16 L-1.352 154.16 L-1.352 117.1307" clip-path="url(#clipPath2)"/>
      <path d="M-1.352 109.1307 L-6.352 121.1307 L-1.352 118.1307 L3.648 121.1307 Z" clip-path="url(#clipPath2)" stroke="none"/>
      <path fill="none" d="M544.488 45.1027 L544.488 -25.84 L350.4814 -25.84" clip-path="url(#clipPath2)"/>
      <path d="M342.4814 -25.84 L354.4814 -20.84 L351.4814 -25.84 L354.4814 -30.84 Z" clip-path="url(#clipPath2)" stroke="none"/>
      <path fill="none" d="M544.488 45.0697 L544.488 34.16 L365.3333 34.16 L360.4627 34.16" clip-path="url(#clipPath2)"/>
      <path d="M360.4627 34.16 L372.4627 39.16 L369.4627 34.16 L372.4627 29.16 Z" clip-path="url(#clipPath2)" stroke="none"/>
      <path fill="none" d="M544.488 75.0898 L544.488 94.16 L349.4481 94.16" clip-path="url(#clipPath2)"/>
      <path d="M341.4481 94.16 L353.4481 99.16 L350.4481 94.16 L353.4481 89.16 Z" clip-path="url(#clipPath2)" stroke="none"/>
      <path fill="none" d="M544.488 75.1016 L544.488 154.16 L315.044 154.16" clip-path="url(#clipPath2)"/>
      <path d="M307.044 154.16 L319.044 159.16 L316.044 154.16 L319.044 149.16 Z" clip-path="url(#clipPath2)" stroke="none"/>
    </g>
    <g text-rendering="geometricPrecision" stroke-miterlimit="1.45" shape-rendering="geometricPrecision" transform="matrix(1,0,0,1,72,128)" stroke-linecap="butt">
      <path fill="none" d="M257.148 -70.8678 L257.148 -52.9846 L252.398 -55.8346 L258.648 -40.8346 L264.898 -55.8346 L260.148 -52.9846 L260.148 -70.8678 Z" clip-path="url(#clipPath2)"/>
    </g>
    <g text-rendering="geometricPrecision" stroke-miterlimit="1.45" shape-rendering="geometricPrecision" transform="matrix(1,0,0,1,72,128)" stroke-linecap="butt">
      <path fill="none" d="M482.008 -92.84 L592.76 -92.84" clip-path="url(#clipPath2)"/>
      <path d="M600.76 -92.84 L588.76 -97.84 L591.76 -92.84 L588.76 -87.84 Z" clip-path="url(#clipPath2)" stroke="none"/>
      <text x="503.6174" xml:space="preserve" y="-99.6701" clip-path="url(#clipPath2)" font-family="sans-serif" stroke="none">Dependency</text>
    </g>
    <g text-rendering="geometricPrecision" stroke-miterlimit="1.45" shape-rendering="geometricPrecision" transform="matrix(1,0,0,1,72,128)" stroke-linecap="butt">
      <path fill="none" d="M586.76 -59.57 L589.61 -54.82 L484.488 -54.82 L484.488 -51.82 L589.61 -51.82 L586.76 -47.07 L601.76 -53.32 L586.76 -59.57 Z" clip-path="url(#clipPath2)"/>
      <text x="491.0224" xml:space="preserve" y="-60.1501" clip-path="url(#clipPath2)" font-family="sans-serif" stroke="none">Flow of operation</text>
    </g>
  </g>
</svg>
