<?xml version="1.0" encoding="UTF-8"?><svg xmlns="http://www.w3.org/2000/svg" xmlns:xlink="http://www.w3.org/1999/xlink" fill-opacity="1" color-rendering="auto" color-interpolation="auto" text-rendering="auto" stroke="black" stroke-linecap="square" width="658" stroke-miterlimit="10" shape-rendering="auto" stroke-opacity="1" fill="black" stroke-dasharray="none" font-weight="normal" stroke-width="1" height="293" font-family="'Dialog'" font-style="normal" stroke-linejoin="miter" font-size="12px" stroke-dashoffset="0" image-rendering="auto">
  <!--Generated by ySVG 2.5-->
  <defs id="genericDefs"/>
  <g>
    <defs id="defs1">
      <clipPath clipPathUnits="userSpaceOnUse" id="clipPath1">
        <path d="M0 0 L658 0 L658 293 L0 293 L0 0 Z"/>
      </clipPath>
      <clipPath clipPathUnits="userSpaceOnUse" id="clipPath2">
        <path d="M326 97 L984 97 L984 390 L326 390 L326 97 Z"/>
      </clipPath>
      <clipPath clipPathUnits="userSpaceOnUse" id="clipPath3">
        <path d="M-2176.5352 -534.2811 L482.178 -534.2811 L482.178 598.9528 L-2176.5352 598.9528 L-2176.5352 -534.2811 Z"/>
      </clipPath>
    </defs>
    <g fill="white" text-rendering="geometricPrecision" shape-rendering="geometricPrecision" transform="translate(-326,-97)" stroke="white">
      <rect x="326" width="658" height="293" y="97" clip-path="url(#clipPath2)" stroke="none"/>
    </g>
    <g fill="silver" text-rendering="geometricPrecision" shape-rendering="geometricPrecision" transform="matrix(1,0,0,1,-326,-97)" stroke="silver">
      <rect x="341.3333" width="308" height="163" y="174.5" clip-path="url(#clipPath2)" stroke="none"/>
    </g>
    <g text-rendering="geometricPrecision" stroke-miterlimit="1.45" shape-rendering="geometricPrecision" transform="matrix(1,0,0,1,-326,-97)" stroke-linecap="butt">
      <rect fill="none" x="341.3333" width="308" height="163" y="174.5" clip-path="url(#clipPath2)"/>
    </g>
    <g fill="white" text-rendering="geometricPrecision" shape-rendering="geometricPrecision" transform="matrix(1,0,0,1,-326,-97)" stroke="white">
      <rect x="349.3333" width="77" height="31" y="241.5" clip-path="url(#clipPath2)" stroke="none"/>
    </g>
    <g text-rendering="geometricPrecision" stroke-miterlimit="1.45" shape-rendering="geometricPrecision" font-family="sans-serif" transform="matrix(1,0,0,1,-326,-97)" stroke-linecap="butt">
      <text x="353.263" xml:space="preserve" y="261.1543" clip-path="url(#clipPath2)" stroke="none">TestRunner</text>
      <rect fill="none" x="349.3333" width="77" height="31" y="241.5" clip-path="url(#clipPath2)"/>
    </g>
    <g fill="white" text-rendering="geometricPrecision" shape-rendering="geometricPrecision" transform="matrix(1,0,0,1,-326,-97)" stroke="white">
      <rect x="456.3333" width="69" height="30" y="242" clip-path="url(#clipPath2)" stroke="none"/>
    </g>
    <g text-rendering="geometricPrecision" stroke-miterlimit="1.45" shape-rendering="geometricPrecision" font-family="sans-serif" transform="matrix(1,0,0,1,-326,-97)" stroke-linecap="butt">
      <text x="460.596" xml:space="preserve" y="261.1543" clip-path="url(#clipPath2)" stroke="none">TestScript</text>
      <rect fill="none" x="456.3333" width="69" height="30" y="242" clip-path="url(#clipPath2)"/>
    </g>
    <g fill="white" text-rendering="geometricPrecision" shape-rendering="geometricPrecision" transform="matrix(1,0,0,1,-326,-97)" stroke="white">
      <rect x="555.3333" width="85" height="30" y="195.5" clip-path="url(#clipPath2)" stroke="none"/>
    </g>
    <g text-rendering="geometricPrecision" stroke-miterlimit="1.45" shape-rendering="geometricPrecision" font-family="sans-serif" transform="matrix(1,0,0,1,-326,-97)" stroke-linecap="butt">
      <text x="586.1116" xml:space="preserve" y="214.6543" clip-path="url(#clipPath2)" stroke="none">App</text>
      <rect fill="none" x="555.3333" width="85" height="30" y="195.5" clip-path="url(#clipPath2)"/>
    </g>
    <g fill="white" text-rendering="geometricPrecision" shape-rendering="geometricPrecision" transform="matrix(1,0,0,1,-326,-97)" stroke="white">
      <rect x="555.3333" width="85" height="30" y="242.5" clip-path="url(#clipPath2)" stroke="none"/>
    </g>
    <g text-rendering="geometricPrecision" stroke-miterlimit="1.45" shape-rendering="geometricPrecision" font-family="sans-serif" transform="matrix(1,0,0,1,-326,-97)" stroke-linecap="butt">
      <text x="586.1116" xml:space="preserve" y="261.6543" clip-path="url(#clipPath2)" stroke="none">App</text>
      <rect fill="none" x="555.3333" width="85" height="30" y="242.5" clip-path="url(#clipPath2)"/>
    </g>
    <g fill="white" text-rendering="geometricPrecision" shape-rendering="geometricPrecision" transform="matrix(1,0,0,1,-326,-97)" stroke="white">
      <rect x="555.3333" width="85" height="30" y="289.5" clip-path="url(#clipPath2)" stroke="none"/>
    </g>
    <g text-rendering="geometricPrecision" stroke-miterlimit="1.45" shape-rendering="geometricPrecision" font-family="sans-serif" transform="matrix(1,0,0,1,-326,-97)" stroke-linecap="butt">
      <text x="586.1116" xml:space="preserve" y="308.6543" clip-path="url(#clipPath2)" stroke="none">App</text>
      <rect fill="none" x="555.3333" width="85" height="30" y="289.5" clip-path="url(#clipPath2)"/>
      <text x="346.6732" font-size="16px" y="202.5391" clip-path="url(#clipPath2)" stroke="none" font-weight="bold" xml:space="preserve">Testmaster</text>
    </g>
    <g fill="silver" text-rendering="geometricPrecision" shape-rendering="geometricPrecision" transform="matrix(1,0,0,1,-326,-97)" stroke="silver">
      <rect x="837.6667" width="131" height="61" y="134.5" clip-path="url(#clipPath2)" stroke="none"/>
    </g>
    <g text-rendering="geometricPrecision" stroke-miterlimit="1.45" shape-rendering="geometricPrecision" transform="matrix(1,0,0,1,-326,-97)" stroke-linecap="butt">
      <rect fill="none" x="837.6667" width="131" height="61" y="134.5" clip-path="url(#clipPath2)"/>
    </g>
    <g fill="white" text-rendering="geometricPrecision" shape-rendering="geometricPrecision" transform="matrix(1,0,0,1,-326,-97)" stroke="white">
      <rect x="842.6667" width="121" height="31" y="164.5" clip-path="url(#clipPath2)" stroke="none"/>
    </g>
    <g text-rendering="geometricPrecision" stroke-miterlimit="1.45" shape-rendering="geometricPrecision" font-family="sans-serif" transform="matrix(1,0,0,1,-326,-97)" stroke-linecap="butt">
      <text x="847.4001" xml:space="preserve" y="184.1543" clip-path="url(#clipPath2)" stroke="none">Tested Application</text>
      <rect fill="none" x="842.6667" width="121" height="31" y="164.5" clip-path="url(#clipPath2)"/>
      <text x="871.4714" font-size="16px" y="155.0391" clip-path="url(#clipPath2)" stroke="none" font-weight="bold" xml:space="preserve">Node 0</text>
    </g>
    <g fill="silver" text-rendering="geometricPrecision" shape-rendering="geometricPrecision" transform="matrix(1,0,0,1,-326,-97)" stroke="silver">
      <rect x="703.6667" width="131" height="61" y="210.5" clip-path="url(#clipPath2)" stroke="none"/>
    </g>
    <g text-rendering="geometricPrecision" stroke-miterlimit="1.45" shape-rendering="geometricPrecision" transform="matrix(1,0,0,1,-326,-97)" stroke-linecap="butt">
      <rect fill="none" x="703.6667" width="131" height="61" y="210.5" clip-path="url(#clipPath2)"/>
    </g>
    <g fill="white" text-rendering="geometricPrecision" shape-rendering="geometricPrecision" transform="matrix(1,0,0,1,-326,-97)" stroke="white">
      <rect x="708.6667" width="121" height="31" y="240.5" clip-path="url(#clipPath2)" stroke="none"/>
    </g>
    <g text-rendering="geometricPrecision" stroke-miterlimit="1.45" shape-rendering="geometricPrecision" font-family="sans-serif" transform="matrix(1,0,0,1,-326,-97)" stroke-linecap="butt">
      <text x="713.4001" xml:space="preserve" y="260.1543" clip-path="url(#clipPath2)" stroke="none">Tested Application</text>
      <rect fill="none" x="708.6667" width="121" height="31" y="240.5" clip-path="url(#clipPath2)"/>
      <text x="737.4714" font-size="16px" y="231.0391" clip-path="url(#clipPath2)" stroke="none" font-weight="bold" xml:space="preserve">Node 1</text>
    </g>
    <g fill="silver" text-rendering="geometricPrecision" shape-rendering="geometricPrecision" transform="matrix(1,0,0,1,-326,-97)" stroke="silver">
      <rect x="837.6667" width="131" height="61" y="313.35" clip-path="url(#clipPath2)" stroke="none"/>
    </g>
    <g text-rendering="geometricPrecision" stroke-miterlimit="1.45" shape-rendering="geometricPrecision" transform="matrix(1,0,0,1,-326,-97)" stroke-linecap="butt">
      <rect fill="none" x="837.6667" width="131" height="61" y="313.35" clip-path="url(#clipPath2)"/>
    </g>
    <g fill="white" text-rendering="geometricPrecision" shape-rendering="geometricPrecision" transform="matrix(1,0,0,1,-326,-97)" stroke="white">
      <rect x="842.6667" width="121" height="31" y="343.35" clip-path="url(#clipPath2)" stroke="none"/>
    </g>
    <g text-rendering="geometricPrecision" stroke-miterlimit="1.45" shape-rendering="geometricPrecision" font-family="sans-serif" transform="matrix(1,0,0,1,-326,-97)" stroke-linecap="butt">
      <text x="847.4001" xml:space="preserve" y="363.0043" clip-path="url(#clipPath2)" stroke="none">Tested Application</text>
      <rect fill="none" x="842.6667" width="121" height="31" y="343.35" clip-path="url(#clipPath2)"/>
      <text x="871.4714" font-size="16px" y="333.8891" clip-path="url(#clipPath2)" stroke="none" font-weight="bold" xml:space="preserve">Node 2</text>
    </g>
    <g text-rendering="geometricPrecision" shape-rendering="geometricPrecision" transform="matrix(0.2475,0,0,0.2586,538.6667,138.1395)">
      <g clip-path="url(#clipPath3)">
        <svg xml:space="preserve" opacity="1" writing-mode="lr-tb" stop-color="rgb(0, 0, 0)" shape-rendering="auto" glyph-orientation-horizontal="0deg" color-profile="auto" lighting-color="rgb(255, 255, 255)" color="rgb(0, 0, 0)" font-weight="400" alignment-baseline="auto" font-style="normal" version="1.1" color-interpolation-filters="linearrgb" text-anchor="start" stroke-linecap="butt" color-interpolation="srgb" font-variant="normal" word-spacing="normal" fill-opacity="1" text-rendering="auto" clip-path="none" text-decoration="none" letter-spacing="normal" viewBox="0 0 320.5 170" glyph-orientation-vertical="auto" display="inline" font-size-adjust="none" overflow="visible" fill="rgb(0, 0, 0)" font-stretch="normal" stroke-dasharray="none" stroke-miterlimit="4" stop-opacity="1" color-rendering="auto" font-size="12" pointer-events="visiblepainted" mask="none" direction="ltr" baseline-shift="baseline" enable-background="new 0 0 320.5 170" fill-rule="nonzero" image-rendering="auto" stroke-dashoffset="0" width="320.5px" marker-end="none" clip="auto" cursor="auto" stroke="none" filter="none" visibility="visible" kerning="auto" stroke-width="1" font-family="&quot;Arial&quot;,&quot;Helvetica&quot;,sans-serif" flood-opacity="1" clip-rule="nonzero" src="none" height="170px" unicode-bidi="normal" stroke-linejoin="miter" stroke-opacity="1" flood-color="rgb(0, 0, 0)" dominant-baseline="auto" marker-start="none" x="0px" marker-mid="none" y="0px">
<g id="svg1.Layer_2" display="none">
	
		<rect x="189.167" y="44.758" display="inline" fill="#FFFFFF" width="14.163" height="27.333" stroke="#000000" stroke-miterlimit="10"/>
	
		<rect x="36.046" y="31.092" display="inline" fill="#FFFFFF" width="14.162" height="27.333" stroke="#000000" stroke-miterlimit="10"/>
</g>
<g id="svg1.Layer_1">
	<path fill="#FFFFFF" d="M259,137.5c23.515-0.131,51.626-18.887,51.626-42.255   c0-23.449-19.154-42.459-42.781-42.459c-3.467,0-6.833,0.419-10.061,1.192c-6.473-20.487-35.151-35.932-69.558-35.932   c-13.481,0-26.085,2.372-36.817,6.487c-8.311-9.491-20.508-15.493-34.115-15.493c-23.931,0-43.517,18.545-45.207,42.043   c-6.265-4.698-13.886-7.463-22.115-7.463c-21.318,0-38.599,18.504-38.599,41.332c0,22.828,17.281,41.333,38.599,41.333   c2.224,0,4.4-0.213,6.521-0.599C62.5,147,75.562,146.864,87.337,152.143" stroke-miterlimit="10" stroke="#000000"/>
	<path fill="#FFFFFF" d="M171.331,155.856c7.701-2.234,14.684-5.142,20.678-8.597   c7.133,6.04,16.859,8.015,27.266,9.744C242.5,160.863,259,142,259,137.5" stroke-miterlimit="10" stroke="#000000"/>
	<path fill="#FFFFFF" d="M162.433,144.363" stroke-miterlimit="10" stroke="#000000"/>
	<path fill="#FFFFFF" d="M162.068,144.363" stroke-miterlimit="10" stroke="#000000"/>
	<path fill="#FFFFFF" d="M87.337,152.143c13.258,5.475,29.606,8.721,47.322,8.721   c22.341,0,31.723-4.466,36.672-5.007" stroke-miterlimit="10" stroke="#000000"/>
</g>
</svg>
      </g>
    </g>
    <g fill="white" text-rendering="geometricPrecision" shape-rendering="geometricPrecision" transform="matrix(1,0,0,1,-326,-97)" stroke="white">
      <rect x="456.3333" width="69" height="30" y="195.5" clip-path="url(#clipPath2)" stroke="none"/>
    </g>
    <g text-rendering="geometricPrecision" stroke-miterlimit="1.45" shape-rendering="geometricPrecision" font-family="sans-serif" transform="matrix(1,0,0,1,-326,-97)" stroke-linecap="butt">
      <text x="460.596" xml:space="preserve" y="214.6543" clip-path="url(#clipPath2)" stroke="none">TestScript</text>
      <rect x="456.3333" y="195.5" clip-path="url(#clipPath2)" fill="none" width="69" stroke-dasharray="6,2" height="30"/>
    </g>
    <g fill="white" text-rendering="geometricPrecision" shape-rendering="geometricPrecision" transform="matrix(1,0,0,1,-326,-97)" stroke="white">
      <rect x="456.3333" width="69" height="30" y="288.5" clip-path="url(#clipPath2)" stroke="none"/>
    </g>
    <g text-rendering="geometricPrecision" stroke-miterlimit="1.45" shape-rendering="geometricPrecision" font-family="sans-serif" transform="matrix(1,0,0,1,-326,-97)" stroke-linecap="butt">
      <text x="460.596" xml:space="preserve" y="307.6543" clip-path="url(#clipPath2)" stroke="none">TestScript</text>
      <rect x="456.3333" y="288.5" clip-path="url(#clipPath2)" fill="none" width="69" stroke-dasharray="6,2" height="30"/>
      <path fill="none" d="M426.3333 257 L448.3333 257" clip-path="url(#clipPath2)"/>
      <path d="M456.3333 257 L444.3333 252 L447.3333 257 L444.3333 262 Z" clip-path="url(#clipPath2)" stroke="none"/>
      <path fill="none" d="M525.3333 242.007 L555.9801 228.6886" clip-path="url(#clipPath2)"/>
      <path d="M563.3172 225.5 L550.3187 225.6971 L555.0629 229.0871 L554.3044 234.8685 Z" clip-path="url(#clipPath2)" stroke="none"/>
      <path fill="none" d="M525.3333 257.1612 L547.3334 257.264" clip-path="url(#clipPath2)"/>
      <path d="M555.3334 257.3014 L543.3569 252.2454 L546.3335 257.2593 L543.3101 262.2453 Z" clip-path="url(#clipPath2)" stroke="none"/>
      <path fill="none" d="M524.6228 272 L556.7319 286.2541" clip-path="url(#clipPath2)"/>
      <path d="M564.0438 289.5 L555.1047 280.0612 L555.8179 285.8483 L551.0472 289.201 Z" clip-path="url(#clipPath2)" stroke="none"/>
      <path fill="none" stroke-dasharray="6,2" d="M640.3333 205.2056 L834.6786 180.9951" clip-path="url(#clipPath2)"/>
      <path stroke-dasharray="6,2" d="M842.6173 180.0061 L830.0912 176.5279 L833.6863 181.1187 L831.3275 186.4512 Z" clip-path="url(#clipPath2)" stroke="none"/>
      <path fill="none" stroke-dasharray="6,2" d="M640.3333 257.1279 L700.667 256.5997" clip-path="url(#clipPath2)"/>
      <path stroke-dasharray="6,2" d="M708.6667 256.5297 L696.6234 251.6349 L699.6671 256.6085 L696.7109 261.6345 Z" clip-path="url(#clipPath2)" stroke="none"/>
      <path fill="none" stroke-dasharray="6,2" d="M640.3333 312.0651 L834.7905 346.6789" clip-path="url(#clipPath2)"/>
      <path stroke-dasharray="6,2" d="M842.6667 348.0809 L831.7286 341.0553 L833.806 346.5037 L829.9761 350.9005 Z" clip-path="url(#clipPath2)" stroke="none"/>
      <path fill="none" stroke-dasharray="12,4" d="M903.1667 230.9316 L903.1667 204.5" stroke-width="2" clip-path="url(#clipPath2)"/>
      <path stroke-dasharray="12,4" d="M903.1667 239.9316 L908.7917 226.4316 L903.1667 229.8066 L897.5417 226.4316 Z" stroke-width="2" clip-path="url(#clipPath2)" stroke="none"/>
      <path stroke-dasharray="12,4" d="M903.1667 195.5 L897.5417 209 L903.1667 205.625 L908.7917 209 Z" stroke-width="2" clip-path="url(#clipPath2)" stroke="none"/>
      <path fill="none" stroke-dasharray="12,4" d="M857.9514 256 L838.6667 256" stroke-width="2" clip-path="url(#clipPath2)"/>
      <path stroke-dasharray="12,4" d="M866.9514 256 L853.4514 250.375 L856.8264 256 L853.4514 261.625 Z" stroke-width="2" clip-path="url(#clipPath2)" stroke="none"/>
      <path stroke-dasharray="12,4" d="M829.6667 256 L843.1667 261.625 L839.7917 256 L843.1667 250.375 Z" stroke-width="2" clip-path="url(#clipPath2)" stroke="none"/>
      <path fill="none" stroke-dasharray="12,4" d="M903.1667 282.6282 L903.1667 304.35" stroke-width="2" clip-path="url(#clipPath2)"/>
      <path stroke-dasharray="12,4" d="M903.1667 273.6282 L897.5417 287.1282 L903.1667 283.7532 L908.7917 287.1282 Z" stroke-width="2" clip-path="url(#clipPath2)" stroke="none"/>
      <path stroke-dasharray="12,4" d="M903.1667 313.35 L908.7917 299.85 L903.1667 303.225 L897.5417 299.85 Z" stroke-width="2" clip-path="url(#clipPath2)" stroke="none"/>
      <path fill="none" d="M362.3333 132.375 L526.1334 132.375" clip-path="url(#clipPath2)"/>
      <path d="M534.1334 132.375 L522.1334 127.375 L525.1334 132.375 L522.1334 137.375 Z" clip-path="url(#clipPath2)" stroke="none"/>
      <text x="393.5859" xml:space="preserve" y="125.5449" clip-path="url(#clipPath2)" stroke="none">Class dependency</text>
      <path fill="none" stroke-dasharray="12,4" d="M591.9333 132.375 L754.7333 132.375" stroke-width="2" clip-path="url(#clipPath2)"/>
      <path stroke-dasharray="12,4" d="M763.7333 132.375 L750.2333 126.75 L753.6083 132.375 L750.2333 138 Z" stroke-width="2" clip-path="url(#clipPath2)" stroke="none"/>
      <text x="582.346" xml:space="preserve" y="125.5449" clip-path="url(#clipPath2)" stroke="none">Interapplication communication</text>
      <path fill="none" stroke-dasharray="6,2" d="M590.9333 163.375 L754.7333 163.375" clip-path="url(#clipPath2)"/>
      <path stroke-dasharray="6,2" d="M762.7333 163.375 L750.7333 158.375 L753.7333 163.375 L750.7333 168.375 Z" clip-path="url(#clipPath2)" stroke="none"/>
      <text x="616.5491" xml:space="preserve" y="156.5449" clip-path="url(#clipPath2)" stroke="none">RPC communication</text>
    </g>
  </g>
</svg>
