<?xml version="1.0" encoding="utf-8" ?>
<!DOCTYPE svg PUBLIC "-//W3C//DTD SVG 1.1//EN" "http://www.w3.org/Graphics/SVG/1.1/DTD/svg11.dtd">
<svg height="452" version="1.1" width="841" xmlns="http://www.w3.org/2000/svg">
<rect fill="#ffffff" height="24" stroke="#ffffff" stroke-width="1" width="139" x="294" y="238"/>
<rect fill="none" height="24" stroke="#000000" stroke-width="1" width="139" x="294" y="238"/>
<text font-family="Dialog" font-size="12" x="299" y="251">
KademliaRoutingImpl</text>
<rect fill="#ffffff" height="43" stroke="#ffffff" stroke-width="1" width="114" x="414" y="326"/>
<rect fill="none" height="43" stroke="#000000" stroke-width="1" width="114" x="414" y="326"/>
<text font-family="Dialog" font-size="12" x="419" y="358">
KademliaRouting</text>
<text font-family="Dialog" font-size="12" x="423" y="340">
&lt;&lt;interface&gt;&gt;</text>
<line fill="#000000" stroke="#000000" stroke-width="1" x1="432" x2="437" y1="254" y2="254"/>
<line fill="#000000" stroke="#000000" stroke-width="1" x1="442" x2="447" y1="254" y2="254"/>
<line fill="#000000" stroke="#000000" stroke-width="1" x1="452" x2="457" y1="254" y2="254"/>
<line fill="#000000" stroke="#000000" stroke-width="1" x1="462" x2="467" y1="254" y2="254"/>
<line fill="#000000" stroke="#000000" stroke-width="1" x1="472" x2="477" y1="254" y2="254"/>
<line fill="#000000" stroke="#000000" stroke-width="1" x1="478" x2="478" y1="254" y2="259"/>
<line fill="#000000" stroke="#000000" stroke-width="1" x1="478" x2="478" y1="264" y2="269"/>
<line fill="#000000" stroke="#000000" stroke-width="1" x1="478" x2="478" y1="274" y2="279"/>
<line fill="#000000" stroke="#000000" stroke-width="1" x1="478" x2="478" y1="284" y2="289"/>
<line fill="#000000" stroke="#000000" stroke-width="1" x1="478" x2="478" y1="294" y2="299"/>
<line fill="#000000" stroke="#000000" stroke-width="1" x1="478" x2="478" y1="304" y2="309"/>
<line fill="#000000" stroke="#000000" stroke-width="1" x1="478" x2="478" y1="314" y2="319"/>
<line fill="#000000" stroke="#000000" stroke-width="1" x1="478" x2="478" y1="324" y2="326"/>
<polygon fill="#ffffff" points="478,326 471,314 485,314" stroke="#ffffff" stroke-width="1"/>
<polygon fill="none" points="478,326 471,314 485,314" stroke="#000000" stroke-width="1"/>
<rect fill="#ffffff" height="24" stroke="#ffffff" stroke-width="1" width="157" x="398" y="414"/>
<rect fill="none" height="24" stroke="#000000" stroke-width="1" width="157" x="398" y="414"/>
<text font-family="Dialog" font-size="12" x="403" y="427">
KademliaRoutingBuilder</text>
<rect fill="#ffffff" height="24" stroke="#ffffff" stroke-width="1" width="100" x="526" y="246"/>
<rect fill="none" height="24" stroke="#000000" stroke-width="1" width="100" x="526" y="246"/>
<text font-family="Dialog" font-size="12" x="531" y="259">
KademliaStore</text>
<rect fill="#ffffff" height="24" stroke="#ffffff" stroke-width="1" width="124" x="238" y="350"/>
<rect fill="none" height="24" stroke="#000000" stroke-width="1" width="124" x="238" y="350"/>
<text font-family="Dialog" font-size="12" x="243" y="363">
CertificateStorage</text>
<rect fill="#ffffff" height="24" stroke="#ffffff" stroke-width="1" width="184" x="14" y="350"/>
<rect fill="none" height="24" stroke="#000000" stroke-width="1" width="184" x="14" y="350"/>
<text font-family="Dialog" font-size="12" x="19" y="363">
PersonalCertificateManager</text>
<rect fill="#ffffff" height="24" stroke="#ffffff" stroke-width="1" width="148" x="54" y="270"/>
<rect fill="none" height="24" stroke="#000000" stroke-width="1" width="148" x="54" y="270"/>
<text font-family="Dialog" font-size="12" x="59" y="283">
KademliaRoutingTable</text>
<line fill="#000000" stroke="#000000" stroke-width="1" x1="398" x2="398" y1="414" y2="409"/>
<line fill="#000000" stroke="#000000" stroke-width="1" x1="398" x2="398" y1="404" y2="399"/>
<line fill="#000000" stroke="#000000" stroke-width="1" x1="398" x2="398" y1="394" y2="389"/>
<line fill="#000000" stroke="#000000" stroke-width="1" x1="398" x2="398" y1="384" y2="379"/>
<line fill="#000000" stroke="#000000" stroke-width="1" x1="398" x2="398" y1="374" y2="369"/>
<line fill="#000000" stroke="#000000" stroke-width="1" x1="398" x2="398" y1="364" y2="359"/>
<line fill="#000000" stroke="#000000" stroke-width="1" x1="398" x2="398" y1="354" y2="349"/>
<line fill="#000000" stroke="#000000" stroke-width="1" x1="398" x2="398" y1="344" y2="339"/>
<line fill="#000000" stroke="#000000" stroke-width="1" x1="398" x2="398" y1="334" y2="329"/>
<line fill="#000000" stroke="#000000" stroke-width="1" x1="398" x2="398" y1="324" y2="319"/>
<line fill="#000000" stroke="#000000" stroke-width="1" x1="398" x2="398" y1="314" y2="309"/>
<line fill="#000000" stroke="#000000" stroke-width="1" x1="398" x2="398" y1="304" y2="299"/>
<line fill="#000000" stroke="#000000" stroke-width="1" x1="398" x2="398" y1="294" y2="289"/>
<line fill="#000000" stroke="#000000" stroke-width="1" x1="398" x2="398" y1="284" y2="279"/>
<line fill="#000000" stroke="#000000" stroke-width="1" x1="398" x2="398" y1="274" y2="269"/>
<line fill="#000000" stroke="#000000" stroke-width="1" x1="398" x2="398" y1="264" y2="261"/>
<line fill="#000000" stroke="#000000" stroke-width="1" x1="405" x2="398" y1="273" y2="261"/>
<line fill="#000000" stroke="#000000" stroke-width="1" x1="391" x2="398" y1="273" y2="261"/>
<line fill="#000000" stroke="#000000" stroke-width="1" x1="554" x2="559" y1="430" y2="430"/>
<line fill="#000000" stroke="#000000" stroke-width="1" x1="564" x2="569" y1="430" y2="430"/>
<line fill="#000000" stroke="#000000" stroke-width="1" x1="574" x2="579" y1="430" y2="430"/>
<line fill="#000000" stroke="#000000" stroke-width="1" x1="584" x2="589" y1="430" y2="430"/>
<line fill="#000000" stroke="#000000" stroke-width="1" x1="590" x2="590" y1="430" y2="425"/>
<line fill="#000000" stroke="#000000" stroke-width="1" x1="590" x2="590" y1="420" y2="415"/>
<line fill="#000000" stroke="#000000" stroke-width="1" x1="590" x2="590" y1="410" y2="405"/>
<line fill="#000000" stroke="#000000" stroke-width="1" x1="590" x2="590" y1="400" y2="395"/>
<line fill="#000000" stroke="#000000" stroke-width="1" x1="590" x2="590" y1="390" y2="385"/>
<line fill="#000000" stroke="#000000" stroke-width="1" x1="590" x2="590" y1="380" y2="375"/>
<line fill="#000000" stroke="#000000" stroke-width="1" x1="590" x2="590" y1="370" y2="365"/>
<line fill="#000000" stroke="#000000" stroke-width="1" x1="590" x2="590" y1="360" y2="355"/>
<line fill="#000000" stroke="#000000" stroke-width="1" x1="590" x2="590" y1="350" y2="345"/>
<line fill="#000000" stroke="#000000" stroke-width="1" x1="590" x2="590" y1="340" y2="335"/>
<line fill="#000000" stroke="#000000" stroke-width="1" x1="590" x2="590" y1="330" y2="325"/>
<line fill="#000000" stroke="#000000" stroke-width="1" x1="590" x2="590" y1="320" y2="315"/>
<line fill="#000000" stroke="#000000" stroke-width="1" x1="590" x2="590" y1="310" y2="305"/>
<line fill="#000000" stroke="#000000" stroke-width="1" x1="590" x2="590" y1="300" y2="295"/>
<line fill="#000000" stroke="#000000" stroke-width="1" x1="590" x2="590" y1="290" y2="285"/>
<line fill="#000000" stroke="#000000" stroke-width="1" x1="590" x2="590" y1="280" y2="275"/>
<line fill="#000000" stroke="#000000" stroke-width="1" x1="590" x2="590" y1="270" y2="269"/>
<line fill="#000000" stroke="#000000" stroke-width="1" x1="597" x2="590" y1="281" y2="269"/>
<line fill="#000000" stroke="#000000" stroke-width="1" x1="583" x2="590" y1="281" y2="269"/>
<rect fill="#ffffff" height="43" stroke="#ffffff" stroke-width="1" width="171" x="22" y="190"/>
<rect fill="none" height="43" stroke="#000000" stroke-width="1" width="171" x="22" y="190"/>
<text font-family="Dialog" font-size="12" x="27" y="222">
NetworkAddressDiscovery</text>
<text font-family="Dialog" font-size="12" x="59" y="204">
&lt;&lt;interface&gt;&gt;</text>
<rect fill="#ffffff" height="43" stroke="#ffffff" stroke-width="1" width="112" x="310" y="142"/>
<rect fill="none" height="43" stroke="#000000" stroke-width="1" width="112" x="310" y="142"/>
<text font-family="Dialog" font-size="12" x="315" y="174">
MessageSender</text>
<text font-family="Dialog" font-size="12" x="318" y="156">
&lt;&lt;interface&gt;&gt;</text>
<rect fill="#ffffff" height="43" stroke="#ffffff" stroke-width="1" width="116" x="514" y="142"/>
<rect fill="none" height="43" stroke="#000000" stroke-width="1" width="116" x="514" y="142"/>
<text font-family="Dialog" font-size="12" x="519" y="174">
MessageListener</text>
<text font-family="Dialog" font-size="12" x="524" y="156">
&lt;&lt;interface&gt;&gt;</text>
<rect fill="#ffffff" height="43" stroke="#ffffff" stroke-width="1" width="104" x="314" y="70"/>
<rect fill="none" height="43" stroke="#000000" stroke-width="1" width="104" x="314" y="70"/>
<text font-family="Dialog" font-size="12" x="330" y="102">
ByteSender</text>
<text font-family="Dialog" font-size="12" x="318" y="84">
&lt;&lt;interface&gt;&gt;</text>
<rect fill="#ffffff" height="43" stroke="#ffffff" stroke-width="1" width="138" x="503" y="70"/>
<rect fill="none" height="43" stroke="#000000" stroke-width="1" width="138" x="503" y="70"/>
<text font-family="Dialog" font-size="12" x="508" y="102">
ByteListeningService</text>
<text font-family="Dialog" font-size="12" x="524" y="84">
&lt;&lt;interface&gt;&gt;</text>
<rect fill="#ffffff" height="24" stroke="#ffffff" stroke-width="1" width="108" x="312" y="14"/>
<rect fill="none" height="24" stroke="#000000" stroke-width="1" width="108" x="312" y="14"/>
<text font-family="Dialog" font-size="12" x="317" y="27">
UDPByteSender</text>
<rect fill="#ffffff" height="24" stroke="#ffffff" stroke-width="1" width="164" x="490" y="14"/>
<rect fill="none" height="24" stroke="#000000" stroke-width="1" width="164" x="490" y="14"/>
<text font-family="Dialog" font-size="12" x="495" y="27">
UDPByteListeningService</text>
<line fill="#000000" stroke="#000000" stroke-width="1" x1="366" x2="366" y1="37" y2="42"/>
<line fill="#000000" stroke="#000000" stroke-width="1" x1="366" x2="366" y1="47" y2="52"/>
<line fill="#000000" stroke="#000000" stroke-width="1" x1="366" x2="366" y1="57" y2="62"/>
<line fill="#000000" stroke="#000000" stroke-width="1" x1="366" x2="366" y1="67" y2="70"/>
<polygon fill="#ffffff" points="366,70 359,58 373,58" stroke="#ffffff" stroke-width="1"/>
<polygon fill="none" points="366,70 359,58 373,58" stroke="#000000" stroke-width="1"/>
<line fill="#000000" stroke="#000000" stroke-width="1" x1="574" x2="574" y1="37" y2="42"/>
<line fill="#000000" stroke="#000000" stroke-width="1" x1="574" x2="574" y1="47" y2="52"/>
<line fill="#000000" stroke="#000000" stroke-width="1" x1="574" x2="574" y1="57" y2="62"/>
<line fill="#000000" stroke="#000000" stroke-width="1" x1="574" x2="574" y1="67" y2="70"/>
<polygon fill="#ffffff" points="574,70 567,58 581,58" stroke="#ffffff" stroke-width="1"/>
<polygon fill="none" points="574,70 567,58 581,58" stroke="#000000" stroke-width="1"/>
<polyline fill="none" points="566,269 566,350 527,350" stroke="#000000" stroke-width="1"/>
<line fill="#000000" stroke="#000000" stroke-width="1" x1="539" x2="527" y1="343" y2="350"/>
<line fill="#000000" stroke="#000000" stroke-width="1" x1="539" x2="527" y1="357" y2="350"/>
<text font-family="Dialog" font-size="12" x="537" y="291">
0..*</text>
<text font-family="Dialog" font-size="12" x="538" y="345">
1</text>
<polyline fill="none" points="302,238 302,214 192,214" stroke="#000000" stroke-width="1"/>
<line fill="#000000" stroke="#000000" stroke-width="1" x1="204" x2="192" y1="207" y2="214"/>
<line fill="#000000" stroke="#000000" stroke-width="1" x1="204" x2="192" y1="221" y2="214"/>
<text font-family="Dialog" font-size="12" x="273" y="229">
0..*</text>
<text font-family="Dialog" font-size="12" x="203" y="209">
1</text>
<polyline fill="none" points="350,261 350,350" stroke="#000000" stroke-width="1"/>
<line fill="#000000" stroke="#000000" stroke-width="1" x1="343" x2="350" y1="338" y2="350"/>
<line fill="#000000" stroke="#000000" stroke-width="1" x1="357" x2="350" y1="338" y2="350"/>
<text font-family="Dialog" font-size="12" x="363" y="288">
1</text>
<text font-family="Dialog" font-size="12" x="363" y="333">
1</text>
<polyline fill="none" points="294,261 197,350" stroke="#000000" stroke-width="1"/>
<line fill="#000000" stroke="#000000" stroke-width="1" x1="201" x2="197" y1="336" y2="350"/>
<line fill="#000000" stroke="#000000" stroke-width="1" x1="210" x2="197" y1="347" y2="350"/>
<text font-family="Dialog" font-size="12" x="299" y="283">
1</text>
<text font-family="Dialog" font-size="12" x="198" y="325">
1</text>
<polyline fill="none" points="344,238 344,184" stroke="#000000" stroke-width="1"/>
<line fill="#000000" stroke="#000000" stroke-width="1" x1="351" x2="344" y1="196" y2="184"/>
<line fill="#000000" stroke="#000000" stroke-width="1" x1="337" x2="344" y1="196" y2="184"/>
<text font-family="Dialog" font-size="12" x="350" y="231">
0..*</text>
<text font-family="Dialog" font-size="12" x="322" y="207">
1</text>
<polyline fill="none" points="577,246 577,184" stroke="#000000" stroke-width="1"/>
<line fill="#000000" stroke="#000000" stroke-width="1" x1="584" x2="577" y1="196" y2="184"/>
<line fill="#000000" stroke="#000000" stroke-width="1" x1="570" x2="577" y1="196" y2="184"/>
<text font-family="Dialog" font-size="12" x="584" y="240">
0..*</text>
<text font-family="Dialog" font-size="12" x="556" y="211">
1</text>
<rect fill="#ffffff" height="24" stroke="#ffffff" stroke-width="1" width="161" x="102" y="151"/>
<rect fill="none" height="24" stroke="#000000" stroke-width="1" width="161" x="102" y="151"/>
<text font-family="Dialog" font-size="12" x="107" y="164">
MessageSenderAdapter</text>
<line fill="#000000" stroke="#000000" stroke-width="1" x1="262" x2="267" y1="166" y2="166"/>
<line fill="#000000" stroke="#000000" stroke-width="1" x1="272" x2="277" y1="166" y2="166"/>
<line fill="#000000" stroke="#000000" stroke-width="1" x1="282" x2="287" y1="166" y2="166"/>
<line fill="#000000" stroke="#000000" stroke-width="1" x1="292" x2="297" y1="166" y2="166"/>
<line fill="#000000" stroke="#000000" stroke-width="1" x1="302" x2="307" y1="166" y2="166"/>
<polygon fill="#ffffff" points="310,166 298,173 298,159" stroke="#ffffff" stroke-width="1"/>
<polygon fill="none" points="310,166 298,173 298,159" stroke="#000000" stroke-width="1"/>
<polyline fill="none" points="190,151 190,94 314,94" stroke="#000000" stroke-width="1"/>
<line fill="#000000" stroke="#000000" stroke-width="1" x1="302" x2="314" y1="101" y2="94"/>
<line fill="#000000" stroke="#000000" stroke-width="1" x1="302" x2="314" y1="87" y2="94"/>
<text font-family="Dialog" font-size="12" x="162" y="134">
0..*</text>
<text font-family="Dialog" font-size="12" x="295" y="89">
1</text>
<polyline fill="none" points="294,246 118,246 118,270" stroke="#000000" stroke-width="1"/>
<polygon fill="#ffffff" points="294,246 284,251 274,246 284,241" stroke="#ffffff" stroke-width="1"/>
<polygon fill="none" points="294,246 284,251 274,246 284,241" stroke="#000000" stroke-width="1"/>
<line fill="#000000" stroke="#000000" stroke-width="1" x1="111" x2="118" y1="258" y2="270"/>
<line fill="#000000" stroke="#000000" stroke-width="1" x1="125" x2="118" y1="258" y2="270"/>
<text font-family="Dialog" font-size="12" x="261" y="240">
1</text>
<text font-family="Dialog" font-size="12" x="96" y="260">
1</text>
<rect fill="#ffffff" height="24" stroke="#ffffff" stroke-width="1" width="141" x="686" y="151"/>
<rect fill="none" height="24" stroke="#000000" stroke-width="1" width="141" x="686" y="151"/>
<text font-family="Dialog" font-size="12" x="691" y="164">
MessageListenerImpl</text>
<line fill="#000000" stroke="#000000" stroke-width="1" x1="686" x2="681" y1="166" y2="166"/>
<line fill="#000000" stroke="#000000" stroke-width="1" x1="676" x2="671" y1="166" y2="166"/>
<line fill="#000000" stroke="#000000" stroke-width="1" x1="666" x2="661" y1="166" y2="166"/>
<line fill="#000000" stroke="#000000" stroke-width="1" x1="656" x2="651" y1="166" y2="166"/>
<line fill="#000000" stroke="#000000" stroke-width="1" x1="646" x2="641" y1="166" y2="166"/>
<line fill="#000000" stroke="#000000" stroke-width="1" x1="636" x2="631" y1="166" y2="166"/>
<polygon fill="#ffffff" points="629,166 641,159 641,173" stroke="#ffffff" stroke-width="1"/>
<polygon fill="none" points="629,166 641,159 641,173" stroke="#000000" stroke-width="1"/>
<polyline fill="none" points="758,151 758,94 640,94" stroke="#000000" stroke-width="1"/>
<line fill="#000000" stroke="#000000" stroke-width="1" x1="652" x2="640" y1="87" y2="94"/>
<line fill="#000000" stroke="#000000" stroke-width="1" x1="652" x2="640" y1="101" y2="94"/>
<text font-family="Dialog" font-size="12" x="730" y="134">
0..*</text>
<text font-family="Dialog" font-size="12" x="652" y="89">
1</text>
<polyline fill="none" points="432,238 514,184" stroke="#000000" stroke-width="1"/>
<line fill="#000000" stroke="#000000" stroke-width="1" x1="507" x2="514" y1="196" y2="184"/>
<line fill="#000000" stroke="#000000" stroke-width="1" x1="500" x2="514" y1="184" y2="184"/>
<text font-family="Dialog" font-size="12" x="413" y="226">
0..*</text>
<text font-family="Dialog" font-size="12" x="481" y="187">
1</text>
<polyline fill="none" points="526,246 421,184" stroke="#000000" stroke-width="1"/>
<line fill="#000000" stroke="#000000" stroke-width="1" x1="434" x2="421" y1="184" y2="184"/>
<line fill="#000000" stroke="#000000" stroke-width="1" x1="427" x2="421" y1="196" y2="184"/>
<text font-family="Dialog" font-size="12" x="511" y="230">
0..*</text>
<text font-family="Dialog" font-size="12" x="444" y="186">
1</text>
</svg>
